<svg width="25" height="24" viewBox="0 0 25 24" fill="none" xmlns="http://www.w3.org/2000/svg">
<path d="M15.6666 15C17.3235 15 18.6666 13.6569 18.6666 12C18.6666 10.3431 17.3235 9 15.6666 9C14.0098 9 12.6666 10.3431 12.6666 12C12.6666 13.6569 14.0098 15 15.6666 15Z" stroke="#4B4B4B" stroke-width="1.25" stroke-linecap="round" stroke-linejoin="round"/>
<path d="M15.6666 3H9.66663C8.00977 3 6.66663 4.34315 6.66663 6C6.66663 7.65685 8.00977 9 9.66663 9H15.6666C17.3235 9 18.6666 7.65685 18.6666 6C18.6666 4.34315 17.3235 3 15.6666 3Z" stroke="#4B4B4B" stroke-width="1.25" stroke-linecap="round" stroke-linejoin="round"/>
<path d="M9.66663 15C8.87098 15 8.10792 14.6839 7.54531 14.1213C6.9827 13.5587 6.66663 12.7956 6.66663 12C6.66663 11.2044 6.9827 10.4413 7.54531 9.87868C8.10792 9.31607 11.871 9.6 12.6666 9.6L12.6666 15H9.66663ZM9.66663 15C9.07328 15 8.49326 15.1759 7.99992 15.5056C7.50657 15.8352 7.12205 16.3038 6.89499 16.8519C6.66793 17.4001 6.60852 18.0033 6.72427 18.5853C6.84003 19.1672 7.12575 19.7018 7.54531 20.1213C7.96486 20.5409 8.49941 20.8266 9.08136 20.9424C9.6633 21.0581 10.2665 20.9987 10.8147 20.7716C11.3629 20.5446 11.8314 20.1601 12.161 19.6667C12.4907 19.1734 12.6666 18.5933 12.6666 18V3" stroke="#4B4B4B" stroke-width="1.25" stroke-linecap="round" stroke-linejoin="round"/>
</svg>
